<svg width="88" height="88" viewBox="0 0 88 88" fill="none" xmlns="http://www.w3.org/2000/svg">
<path d="M81.9766 33.9141C80.5039 32.375 78.9805 30.7891 78.4063 29.3945C77.875 28.1172 77.8437 26 77.8125 23.9492C77.7539 20.1367 77.6914 15.8164 74.6875 12.8125C71.6836 9.80859 67.3633 9.74609 63.5508 9.6875C61.5 9.65625 59.3828 9.625 58.1055 9.09375C56.7148 8.51953 55.125 6.99609 53.5859 5.52344C50.8906 2.93359 47.8281 0 43.75 0C39.6719 0 36.6133 2.93359 33.9141 5.52344C32.375 6.99609 30.7891 8.51953 29.3945 9.09375C28.125 9.625 26 9.65625 23.9492 9.6875C20.1367 9.74609 15.8164 9.80859 12.8125 12.8125C9.80859 15.8164 9.76562 20.1367 9.6875 23.9492C9.65625 26 9.625 28.1172 9.09375 29.3945C8.51953 30.7852 6.99609 32.375 5.52344 33.9141C2.93359 36.6094 0 39.6719 0 43.75C0 47.8281 2.93359 50.8867 5.52344 53.5859C6.99609 55.125 8.51953 56.7109 9.09375 58.1055C9.625 59.3828 9.65625 61.5 9.6875 63.5508C9.74609 67.3633 9.80859 71.6836 12.8125 74.6875C15.8164 77.6914 20.1367 77.7539 23.9492 77.8125C26 77.8437 28.1172 77.875 29.3945 78.4063C30.7852 78.9805 32.375 80.5039 33.9141 81.9766C36.6094 84.5664 39.6719 87.5 43.75 87.5C47.8281 87.5 50.8867 84.5664 53.5859 81.9766C55.125 80.5039 56.7109 78.9805 58.1055 78.4063C59.3828 77.875 61.5 77.8437 63.5508 77.8125C67.3633 77.7539 71.6836 77.6914 74.6875 74.6875C77.6914 71.6836 77.7539 67.3633 77.8125 63.5508C77.8437 61.5 77.875 59.3828 78.4063 58.1055C78.9805 56.7148 80.5039 55.125 81.9766 53.5859C84.5664 50.8906 87.5 47.8281 87.5 43.75C87.5 39.6719 84.5664 36.6133 81.9766 33.9141ZM61.5859 36.5859L39.7109 58.4609C39.4207 58.7515 39.0761 58.982 38.6967 59.1393C38.3173 59.2965 37.9107 59.3775 37.5 59.3775C37.0893 59.3775 36.6827 59.2965 36.3033 59.1393C35.9239 58.982 35.5793 58.7515 35.2891 58.4609L25.9141 49.0859C25.3277 48.4996 24.9983 47.7043 24.9983 46.875C24.9983 46.0457 25.3277 45.2504 25.9141 44.6641C26.5004 44.0777 27.2957 43.7483 28.125 43.7483C28.9543 43.7483 29.7496 44.0777 30.3359 44.6641L37.5 51.832L57.1641 32.1641C57.4544 31.8737 57.7991 31.6434 58.1784 31.4863C58.5578 31.3291 58.9644 31.2483 59.375 31.2483C59.7856 31.2483 60.1922 31.3291 60.5716 31.4863C60.9509 31.6434 61.2956 31.8737 61.5859 32.1641C61.8763 32.4544 62.1066 32.7991 62.2637 33.1784C62.4209 33.5578 62.5017 33.9644 62.5017 34.375C62.5017 34.7856 62.4209 35.1922 62.2637 35.5716C62.1066 35.9509 61.8763 36.2956 61.5859 36.5859Z" fill="#007DCE"/>
</svg>
